<svg width="19" height="19" viewBox="0 0 19 19" fill="none" xmlns="http://www.w3.org/2000/svg">
<path opacity="0.4" d="M8.48992 15.4349C12.3266 15.4349 15.4369 12.3246 15.4369 8.48797C15.4369 4.65128 12.3266 1.54102 8.48992 1.54102C4.65322 1.54102 1.54297 4.65128 1.54297 8.48797C1.54297 12.3246 4.65322 15.4349 8.48992 15.4349Z" fill="#3A643B"/>
<path d="M16.9569 14.6114C16.7024 14.141 16.1627 13.8789 15.4379 13.8789C14.8905 13.8789 14.4202 14.1025 14.1426 14.488C13.865 14.8735 13.8033 15.3901 13.973 15.9067C14.3045 16.909 14.8828 17.1327 15.1989 17.1712C15.2452 17.1789 15.2915 17.1789 15.3454 17.1789C15.6847 17.1789 16.2089 17.0324 16.7178 16.2691C17.1265 15.6754 17.2036 15.0817 16.9569 14.6114Z" fill="#28643B" fill-opacity="0.5"/>
</svg>
